<svg id="Capa_1" data-name="Capa 1" xmlns="http://www.w3.org/2000/svg" viewBox="0 0 276.04 219.52"><defs><style>.cls-1{fill:none;}.cls-2{fill:#06d1f2;}</style></defs><title>dm</title><path class="cls-1" d="M181.73,83.78q4.13-7.89,8.25-16c1.31-2.39,2.57-4.81,3.76-7.26s2.33-4.93,3.41-7.44c.36-.95.69-1.85,1-2.69s.63-1.73,1-2.68V47a11.77,11.77,0,0,0-1.26.72,9.43,9.43,0,0,1-1.25.71A49.07,49.07,0,0,0,192,52.23c-1.43,1.31-2.81,2.69-4.12,4.12q-4.49,4.66-8.61,9.41t-8.06,9.77q-4.31,5.56-8.34,11.29c-1.61,2.29-3.25,4.58-4.88,6.86l14.39,8.41c.39-.78.76-1.57,1.16-2.36Q177.6,91.66,181.73,83.78Z"/><path class="cls-1" d="M147.94,72.48q1.53-5,2.6-10.22.72-3.57,1.17-7a40.33,40.33,0,0,0,.27-7,27.05,27.05,0,0,0-.27-3.85,15.91,15.91,0,0,0-1-3.68,13.1,13.1,0,0,0-3.49-5.19,16,16,0,0,0-5.29-3.05,23,23,0,0,0-9.86-1.08,44.19,44.19,0,0,0-11.29,2.15,64.41,64.41,0,0,0-10.58,4.66A81.36,81.36,0,0,0,90.07,53.68l53.45,31.57.12.07c.32-.87.67-1.75,1-2.62Q146.42,77.51,147.94,72.48Z"/><path class="cls-2" d="M141.94,106.72q-3.58,8.61-7.71,16.85T126,140.24a.37.37,0,0,1-.09.27.37.37,0,0,0-.09.27q.36-.36.36-.54c1.68-2.75,3.26-5.43,4.75-8.07s3.08-5.25,4.75-7.88q2.86-4.67,5.65-9.23t5.65-9.24q3.4-5.19,6.72-10.21c.7-1.07,1.47-2.09,2.19-3.14l-6.61-3.87c-.64,1.75-1.27,3.49-1.94,5.21Q144.8,100.28,141.94,106.72Z"/><path d="M162.82,86.82q4-5.73,8.34-11.29,3.93-5,8.06-9.77t8.61-9.41c1.31-1.43,2.69-2.81,4.12-4.12a49.07,49.07,0,0,1,4.66-3.77,9.43,9.43,0,0,0,1.25-.71,11.77,11.77,0,0,1,1.26-.72v.72c-.36,1-.69,1.85-1,2.68s-.62,1.74-1,2.69c-1.08,2.51-2.21,5-3.41,7.44s-2.45,4.87-3.76,7.26q-4.12,8.07-8.25,16t-8.24,16c-.4.79-.77,1.58-1.16,2.36l4.77,2.79Q181,96.84,185,89T193,73q2.16-4.12,4.13-8.34t3.76-8.51c.48-1.19.9-2.33,1.26-3.41a27.13,27.13,0,0,0,.89-3.58A3.72,3.72,0,0,0,202,45.59a3.76,3.76,0,0,0-4.48-.89,4.94,4.94,0,0,1-.63.27,1.86,1.86,0,0,0-.63.44,32.09,32.09,0,0,0-2.69,1.89c-.83.66-1.67,1.34-2.51,2.06q-3.59,3.59-7,7.26t-6.63,7.44q-8.79,10.22-16.85,21.69c-1.63,2.2-3.16,4.47-4.71,6.72l2.07,1.21C159.57,91.4,161.21,89.11,162.82,86.82Z"/><path d="M272.52,100.72a1.14,1.14,0,0,0-1.16.44L257.91,120q-3.41,4.65-6.72,9.32t-6.72,9.32q-4.12,5.73-8.15,11.47t-8.16,11.47q-3.41,4.67-7,9.14t-7.53,8.79l-4.21,4.21q-2.07,2.06-4.39,4c-.84.59-1.71,1.19-2.61,1.79a14,14,0,0,1-2.77,1.43q-1.26.54-1.44-.72a14.66,14.66,0,0,1-.18-2.68,34.3,34.3,0,0,1,.9-7.18c.6-2.63,1.22-5.19,1.88-7.7s1.41-5.08,2.24-7.71q3-10,6.73-19.63t7.79-19.27q4.13-10,8.52-19.63t9.05-19.27q3-6.45,5.92-12.81t5.73-12.82c1-2.27,1.88-4.54,2.78-6.81a55.78,55.78,0,0,0,2.24-7c.36-1.32.66-2.57.9-3.77a13.35,13.35,0,0,0,.18-3.76,4.87,4.87,0,0,0-4-4.66,6.11,6.11,0,0,0-3.76.89,22.73,22.73,0,0,0-4.12,3.23,68.16,68.16,0,0,0-6.73,6.54q-3.14,3.49-6.18,7.08-6.27,7.53-11.92,15.42T205.21,85q-3.59,5.39-6.9,10.94t-6.54,11.29q-3.95,7-7.8,14t-7.79,14.16q-3.06,5.21-5.92,10.67t-5.92,10.84q-2.33,4.31-4.84,8.52T154,173.76a33,33,0,0,1-5.56,6.45l-1.07,1.08a3.72,3.72,0,0,1-.18-1.26,9,9,0,0,0,.18-1.61,7.54,7.54,0,0,1,.18-1.61,40.81,40.81,0,0,1,1.43-5.56q.88-2.69,1.79-5.37,3-8.61,6.46-16.85c2.26-5.5,4.66-11,7.16-16.5q3-7,6.19-13.89c.69-1.51,1.45-3,2.15-4.52l-8.19,4.58q-3.18,7.06-6.24,14.37-2.69,6.45-5.2,13t-4.84,13.17c-1,2.63-1.79,5.2-2.51,7.71a76,76,0,0,0-1.79,7.89,14.37,14.37,0,0,0-.54,5.91,3.07,3.07,0,0,0,2.33,2.69,4.65,4.65,0,0,0,4.48-1.43,23.64,23.64,0,0,0,3.77-3.94,65.6,65.6,0,0,0,5.46-7.44q2.43-3.87,4.75-8,3.06-5.21,5.74-10.31T175.46,142q5.19-9.32,10.22-18.46t10.39-18.28q2.69-4.67,5.47-9.15t5.65-9q9.67-15.06,20.25-28.68l6-7.08a83.59,83.59,0,0,1,6.36-6.72,34.87,34.87,0,0,1,7-5.56,5.52,5.52,0,0,1,1-.54,5.09,5.09,0,0,0,1-.53V39a26,26,0,0,1-.53,3.14c-.24,1-.48,2.06-.72,3.14a138.64,138.64,0,0,1-5.92,14.52q-3.22,7.17-6.54,14.34t-6.72,14.34q-4.31,9.5-8.43,18.82t-7.88,19q-3.06,7.53-5.74,15.06t-5.2,15.41q-1.78,5.75-3.32,11.57T195.18,180c-.24,1.44-.42,2.9-.54,4.4a29,29,0,0,0,0,4.57c.12,1.91,1,3.05,2.51,3.4a7.42,7.42,0,0,0,2.69.18,8.22,8.22,0,0,0,4.12-1.79,19.53,19.53,0,0,0,3.59-2.51l3.22-2.87a156.72,156.72,0,0,0,17.39-19.89q4.67-6.47,9.23-12.91t9.23-12.91c1.91-2.51,3.77-5,5.56-7.62s3.59-5.1,5.38-7.61q3.22-4.66,6.45-9.15t6.63-9.14l1.44-2.15c.47-.72.95-1.43,1.43-2.15a1,1,0,0,0,.18-.72A2,2,0,0,0,272.52,100.72Z"/><path d="M68.26,94a22.89,22.89,0,0,0,4.84,15.87,14.2,14.2,0,0,0,4.49,3.67,12.78,12.78,0,0,0,6.27,1.88,23,23,0,0,0,6.63-.8,12.24,12.24,0,0,0,3.76-2,.81.81,0,0,0-.17-.9,1.62,1.62,0,0,0-2.15-.18,12.49,12.49,0,0,1-3.41,1.61,29.47,29.47,0,0,1-3.32.54,12.88,12.88,0,0,1-3.67-.18,7.62,7.62,0,0,1-3.68-1.61,26.43,26.43,0,0,1-2.95-2.87A18.3,18.3,0,0,1,72,103.31a36.11,36.11,0,0,1-1.26-6.45,23.61,23.61,0,0,1-.09-5.38c.13-1.26.36-2.46.57-3.67l-2.32-1.39A43.59,43.59,0,0,0,68.26,94Z"/><path d="M114,152.79q-6.45,13.44-12.36,27.42c-.25.6-.45,1.14-.63,1.62s-.39,1-.63,1.61q0,.9.54,1.08a3.11,3.11,0,0,0,2.33.18,1.67,1.67,0,0,0,1.25-1.26c1.32-2,2.69-4.24,4.13-6.63q4.29-7.53,8.51-15.15t8.52-15.14l4.73-8.19-13.36,8C116,148.51,115,150.61,114,152.79Z"/><path d="M110.21,38.24a64.41,64.41,0,0,1,10.58-4.66,44.19,44.19,0,0,1,11.29-2.15,23,23,0,0,1,9.86,1.08,16,16,0,0,1,5.29,3.05,13.1,13.1,0,0,1,3.49,5.19,15.91,15.91,0,0,1,1,3.68,27.05,27.05,0,0,1,.27,3.85,40.33,40.33,0,0,1-.27,7q-.45,3.42-1.17,7-1.08,5.21-2.6,10.22T144.63,82.7c-.32.87-.67,1.75-1,2.62l5.62,3.28c.94-2.6,1.86-5.22,2.72-7.87q1.78-5.55,3.13-11.2A82,82,0,0,0,157,58.14q.17-2.87.09-5.64a38.31,38.31,0,0,0-.63-5.65,21.17,21.17,0,0,0-6.64-12.19,25,25,0,0,0-15.77-5.92,40.41,40.41,0,0,0-12.19,2,68.59,68.59,0,0,0-12.46,5,76.88,76.88,0,0,0-11.2,7.17,85.55,85.55,0,0,0-10.44,9.41l2.31,1.36A81.36,81.36,0,0,1,110.21,38.24Z"/><path class="cls-2" d="M177.1,104.88l-4.77-2.79-14.39-8.41c-1.09,1.54-2.17,3.08-3.28,4.62q-3.94,5.91-7.7,11.92t-7.35,12.1l-9.25,16,13.16-7.92,21-11.71,8.19-4.58L183,108.35Z"/><path class="cls-2" d="M143.52,85.25,90.07,53.68l-2.31-1.36L1.87,1.6V46.25L68.93,86.42l2.32,1.39,34.29,20.54L1.87,170.44V215.6L117,146.36c1.66-3.52,3.35-7.06,5-10.51q3.85-8.34,7.8-16.94,7.65-16.8,13.89-33.59Z"/><path d="M147,110.22q3.76-6,7.7-11.92c1.11-1.54,2.19-3.08,3.28-4.62l-2.07-1.21c-.72,1-1.49,2.07-2.19,3.14q-3.31,5-6.72,10.21-2.88,4.67-5.65,9.24t-5.65,9.23q-2.5,3.95-4.75,7.88c-1.49,2.64-3.07,5.32-4.75,8.07q0,.18-.36.54a.37.37,0,0,1,.09-.27.37.37,0,0,0,.09-.27q4.12-8.42,8.25-16.67t7.71-16.85q2.87-6.45,5.38-12.91c.67-1.72,1.3-3.46,1.94-5.21l-5.62-3.28q-6.27,16.8-13.89,33.59-3.94,8.61-7.8,16.94c-1.6,3.45-3.29,7-5,10.51l13.36-8,9.25-16Q143.2,116.22,147,110.22Z"/></svg>